HIERARCHY
ROOT Hips
{
	OFFSET 0.000000 0.000000 0.000000
	CHANNELS 6 Xposition Yposition Zposition Zrotation Yrotation Xrotation 
	JOINT LHipJoint
	{
		OFFSET 0.000000 0.000000 0.000000
		CHANNELS 3 Zrotation Yrotation Xrotation
		JOINT LeftUpLeg
		{
			OFFSET 1.363060 -1.794630 0.839290
			CHANNELS 3 Zrotation Yrotation Xrotation
			JOINT LeftLeg
			{
				OFFSET 2.448110 -6.726130 0.000000
				CHANNELS 3 Zrotation Yrotation Xrotation
				JOINT LeftFoot
				{
					OFFSET 2.562200 -7.039590 0.000000
					CHANNELS 3 Zrotation Yrotation Xrotation
					JOINT LeftToeBase
					{
						OFFSET 0.157640 -0.433110 2.322550
						CHANNELS 3 Zrotation Yrotation Xrotation
						End Site
						{
							OFFSET 0.000000 0.000000 0.000000
						}
					}
				}
			}
		}
	}
	JOINT RHipJoint
	{
		OFFSET 0.000000 0.000000 0.000000
		CHANNELS 3 Zrotation Yrotation Xrotation
		JOINT RightUpLeg
		{
			OFFSET -1.305520 -1.794630 0.839290
			CHANNELS 3 Zrotation Yrotation Xrotation
			JOINT RightLeg
			{
				OFFSET -2.542530 -6.985550 0.000000
				CHANNELS 3 Zrotation Yrotation Xrotation
				JOINT RightFoot
				{
					OFFSET -2.568260 -7.056230 0.000000
					CHANNELS 3 Zrotation Yrotation Xrotation
					JOINT RightToeBase
					{
						OFFSET -0.164730 -0.452590 2.363150
						CHANNELS 3 Zrotation Yrotation Xrotation
						End Site
						{
							OFFSET 0.000000 0.000000 0.000000
						}
					}
				}
			}
		}
	}
	JOINT LowerBack
	{
		OFFSET 0.000000 0.000000 0.000000
		CHANNELS 3 Zrotation Yrotation Xrotation
		JOINT Spine
		{
			OFFSET 0.028270 2.035590 -0.193380
			CHANNELS 3 Zrotation Yrotation Xrotation
			JOINT Spine1
			{
				OFFSET 0.056720 2.048850 -0.042750
				CHANNELS 3 Zrotation Yrotation Xrotation
				JOINT Neck
				{
					OFFSET 0.000000 0.000000 0.000000
					CHANNELS 3 Zrotation Yrotation Xrotation
					JOINT Neck1
					{
						OFFSET -0.054170 1.746240 0.172020
						CHANNELS 3 Zrotation Yrotation Xrotation
						JOINT Head
						{
							OFFSET 0.104070 1.761360 -0.123970
							CHANNELS 3 Zrotation Yrotation Xrotation
							End Site
							{
								OFFSET 0.000000 0.000000 0.000000
							}
						}
					}
				}
				JOINT LeftShoulder
				{
					OFFSET 0.000000 0.000000 0.000000
					CHANNELS 3 Zrotation Yrotation Xrotation
					JOINT LeftArm
					{
						OFFSET 3.362410 1.200890 -0.311210
						CHANNELS 3 Zrotation Yrotation Xrotation
						JOINT LeftForeArm
						{
							OFFSET 4.983000 -0.000000 -0.000000
							CHANNELS 3 Zrotation Yrotation Xrotation
							JOINT LeftHand
							{
								OFFSET 3.483560 -0.000000 -0.000000
								CHANNELS 3 Zrotation Yrotation Xrotation
								JOINT LeftFingerBase
								{
									OFFSET 0.000000 0.000000 0.000000
									CHANNELS 3 Zrotation Yrotation Xrotation
									JOINT LeftHandIndex1
									{
										OFFSET 0.715260 -0.000000 -0.000000
										CHANNELS 3 Zrotation Yrotation Xrotation
										End Site
										{
											OFFSET 0.000000 0.000000 0.000000
										}
									}
								}
								JOINT LThumb
								{
									OFFSET 0.000000 0.000000 0.000000
									CHANNELS 3 Zrotation Yrotation Xrotation
									End Site
									{
										OFFSET 0.000000 0.000000 0.000000
									}
								}
							}
						}
					}
				}
				JOINT RightShoulder
				{
					OFFSET 0.000000 0.000000 0.000000
					CHANNELS 3 Zrotation Yrotation Xrotation
					JOINT RightArm
					{
						OFFSET -3.136600 1.374050 -0.404650
						CHANNELS 3 Zrotation Yrotation Xrotation
						JOINT RightForeArm
						{
							OFFSET -5.241900 -0.000000 -0.000000
							CHANNELS 3 Zrotation Yrotation Xrotation
							JOINT RightHand
							{
								OFFSET -3.444170 -0.000000 -0.000000
								CHANNELS 3 Zrotation Yrotation Xrotation
								JOINT RightFingerBase
								{
									OFFSET 0.000000 0.000000 0.000000
									CHANNELS 3 Zrotation Yrotation Xrotation
									JOINT RightHandIndex1
									{
										OFFSET -0.622530 -0.000000 -0.000000
										CHANNELS 3 Zrotation Yrotation Xrotation
										End Site
										{
											OFFSET 0.000000 0.000000 0.000000
										}
									}
								}
								JOINT RThumb
								{
									OFFSET 0.000000 0.000000 0.000000
									CHANNELS 3 Zrotation Yrotation Xrotation
									End Site
									{
										OFFSET 0.000000 0.000000 0.000000
									}
								}
							}
						}
					}
				}
			}
		}
	}
}
MOTION
Frames: 12
Frame Time: 0.008333
-40.602600 17.257398 -1.009392 58.848189 86.528852 64.719893 -0.919887 0.314203 0.804858 -16.473698 0.245328 -4.937689 -0.147631 9.395425 26.624128 0.048586 4.400138 -14.548791 0.384900 -3.984300 -11.032400 -0.686257 -0.370182 -0.326999 8.860023 0.108633 -13.673204 -3.203111 -13.604396 39.445498 0.525602 -6.319999 -14.897407 -0.442700 4.269100 -11.835000 -5.948572 1.403777 -3.652115 -0.000219 2.235958 -3.006180 1.953531 0.823995 5.629904 -9.132512 -8.296735 -5.603803 4.928593 -12.126149 9.236828 7.928700 -5.228400 2.143400 0.509387 0.861871 1.420774 -81.808705 8.419098 66.619153 114.604940 -56.364035 -78.675819 -1.476846 0.625494 -1.367158 45.456964 30.871043 27.468200 -7.125000 0.000000 0.000000 24.091500 67.673100 13.440100 -4.660109 -1.569862 1.003393 83.190927 -15.449968 42.770748 -91.913705 61.293523 -62.887679 -0.817346 -0.796696 -25.524343 -2.782496 34.253155 -0.972300 7.125000 0.000000 0.000000 16.909000 3.388900 18.692200 
-40.546122 17.234740 -1.000599 56.585058 86.275084 62.517316 -0.894871 0.302582 0.815716 -16.657818 0.579931 -4.854896 -0.137313 9.376367 26.618409 0.108354 4.266535 -14.727451 0.440400 -4.258200 -11.804200 -0.763344 -0.384134 -0.377670 8.662309 0.070598 -13.951906 -3.434977 -13.845735 40.238351 0.235919 -5.545589 -15.052186 -0.459100 4.346700 -12.054100 -6.142491 1.410732 -3.332409 -0.029998 2.255055 -2.996497 1.792240 0.827617 5.594117 -9.054459 -8.341401 -5.691499 4.961429 -12.177579 9.085793 7.945200 -5.218700 2.104000 0.492957 0.847655 1.430755 -81.786034 7.633686 66.659210 114.764753 -56.317560 -78.769338 -1.480923 0.611558 -4.043746 44.107048 28.746372 24.850600 -7.125000 0.000000 0.000000 21.091900 64.855900 10.346200 -4.708375 -1.540834 1.018168 83.612068 -15.868364 43.152721 -92.946237 61.221000 -63.486248 -0.670683 -0.846222 -28.859142 -5.126297 32.757973 -2.270800 7.125000 0.000000 0.000000 15.557700 2.263800 16.781400 
-40.487952 17.212757 -0.991129 53.685545 86.078557 59.683660 -0.876254 0.297794 0.841660 -16.742215 0.910258 -4.715568 -0.159262 9.293846 26.441892 0.087546 4.371751 -14.902501 0.498900 -4.528400 -12.568300 -0.850152 -0.390556 -0.439927 8.554662 0.038187 -14.301785 -3.715155 -14.139489 41.214782 0.145423 -5.285233 -15.036395 -0.585800 4.900600 -13.625400 -6.228189 1.476825 -2.963718 -0.064764 2.339439 -2.988572 1.586109 0.870310 5.530802 -8.975337 -8.400217 -5.805501 5.049040 -12.268233 8.909940 8.008000 -5.219700 2.092300 0.474161 0.814278 1.437038 -81.778878 6.811569 66.735597 114.928977 -56.272533 -78.857110 -1.480361 0.587772 -6.643616 42.424225 26.657113 22.100700 -7.125000 0.000000 0.000000 18.067900 61.976800 7.595700 -4.776892 -1.498404 1.034804 84.232252 -16.107439 43.311676 -93.677882 61.128658 -63.869292 -0.460556 -0.909556 -32.157867 -8.341870 31.414452 -3.980400 7.125000 0.000000 0.000000 13.666000 1.468900 14.424300 
-40.434743 17.182094 -0.978842 53.040092 85.690904 59.117841 -0.850825 0.293727 0.886670 -17.061655 1.134460 -4.580677 -0.178851 9.237316 26.330270 0.075616 4.498760 -15.263202 0.603800 -4.973800 -13.833900 -0.938477 -0.403806 -0.479226 8.235131 -0.213675 -14.813159 -4.017593 -14.417342 42.182938 0.003631 -4.865243 -14.982033 -0.648200 5.150200 -14.337300 -6.665436 1.469700 -2.671051 -0.103385 2.326789 -3.031114 1.451478 0.879903 4.863241 -9.009610 -8.314207 -4.784997 5.240870 -12.198300 8.669472 8.257400 -5.170000 1.649100 0.463758 0.710429 1.492913 -81.795404 6.686212 66.692143 114.866363 -56.273512 -78.774161 -1.498365 0.533193 -8.530058 40.928231 25.753721 20.482100 -7.125000 0.000000 0.000000 15.872100 60.573300 6.116100 -4.886035 -1.343222 1.117656 84.903518 -17.002916 43.560945 -94.370703 61.030903 -64.226040 -0.228021 -0.956898 -35.675488 -11.521840 30.321005 -5.615300 7.125000 0.000000 0.000000 11.746700 0.964800 12.200500 
-40.386720 17.130576 -0.968245 53.125586 85.210679 59.361136 -0.815289 0.300635 0.913338 -17.500588 1.161588 -4.234510 -0.213336 9.160907 26.129350 0.386975 3.713311 -15.806614 0.464600 -4.372200 -12.126100 -1.050397 -0.396505 -0.576673 7.830945 -0.593812 -15.510857 -4.384555 -14.749634 43.328927 -0.324282 -3.992581 -15.251288 -0.621300 5.044100 -14.034300 -7.187852 1.390428 -2.438497 -0.131099 2.250845 -3.022039 1.428985 0.824044 4.842663 -8.976300 -8.223452 -4.819706 5.353771 -12.062522 8.420685 8.338400 -5.041900 1.466700 0.464358 0.706853 1.510247 -82.052406 5.798379 66.608448 114.523944 -56.321680 -78.469031 -1.526497 0.487197 -9.726216 40.020006 25.545846 19.785300 -7.125000 0.000000 0.000000 14.666200 60.128400 5.483400 -4.934306 -1.316166 1.146520 85.279145 -17.276447 43.806773 -95.164709 60.952498 -64.764390 0.000381 -0.967517 -39.267466 -14.138399 29.383121 -6.913100 7.125000 0.000000 0.000000 10.115300 0.549800 10.374400 
-40.319420 17.123249 -0.958099 51.925721 84.828720 58.265893 -0.794809 0.262437 0.887463 -17.828356 1.624463 -4.248308 -0.249943 9.096454 26.002410 -0.222198 5.585353 -16.032688 1.157400 -6.830300 -19.213400 -1.169945 -0.399379 -0.683322 7.590862 -0.875148 -15.960736 -4.722937 -15.048778 44.385727 -0.622993 -3.159285 -15.413373 -0.639900 5.117600 -14.244200 -7.496380 1.321412 -2.088993 -0.145143 2.196519 -2.952527 1.464435 0.758669 5.378378 -9.008023 -8.308940 -5.705841 5.431856 -12.150408 8.096136 8.364200 -4.964100 1.530800 0.453846 0.791672 1.512210 -82.441789 4.243678 66.526582 114.304326 -56.339437 -78.272340 -1.561133 0.432419 -10.971566 38.859654 25.448458 19.035100 -7.125000 0.000000 0.000000 13.179000 59.760800 4.799200 -4.949418 -1.400603 1.148776 85.450284 -16.978858 43.889476 -96.127910 60.875830 -65.539420 0.233096 -0.956205 -42.817870 -16.723417 28.713869 -8.217000 7.125000 0.000000 0.000000 8.496700 0.432100 8.656000 
-40.263731 17.082891 -0.947728 51.299296 84.461678 57.719113 -0.758175 0.272477 0.872199 -18.152014 1.574255 -3.786541 -0.271339 9.031556 25.817594 0.289681 4.143757 -16.340663 0.506100 -4.560300 -12.658600 -1.297902 -0.386838 -0.820015 7.300764 -1.079369 -16.482615 -5.116565 -15.393281 45.615660 -0.822564 -2.564599 -15.447367 -0.712500 5.394400 -15.036900 -7.887520 1.163321 -1.710591 -0.149571 2.035942 -2.867926 1.479241 0.623181 6.190117 -8.745898 -8.376614 -7.151471 5.452851 -12.195413 7.926837 8.179400 -4.884200 1.829000 0.459582 0.899230 1.477674 -82.743052 2.430294 65.868557 114.909552 -56.178725 -78.874919 -1.633148 0.240380 -14.332657 35.931489 25.666401 17.545600 -7.125000 0.000000 0.000000 9.530200 59.437900 3.379300 -4.909097 -1.549044 1.100903 85.575545 -16.273748 44.209314 -96.800413 60.807853 -66.098584 0.471616 -0.932135 -46.414185 -19.534644 28.606245 -9.791600 7.125000 0.000000 0.000000 6.795400 0.977800 6.959200 
-40.193049 17.076353 -0.935328 50.509988 84.102065 57.066236 -0.738736 0.234765 0.847841 -18.443568 2.187013 -3.950490 -0.267222 9.013649 25.799269 0.067961 4.767146 -16.215748 0.582800 -4.888200 -13.590100 -1.417264 -0.382727 -0.923582 7.030991 -1.213856 -16.920901 -5.465291 -15.678902 46.665650 -1.064803 -1.773087 -15.285789 -0.696900 5.336200 -14.870100 -8.392415 0.893517 -1.400738 -0.136080 1.724335 -2.817373 1.538234 0.409815 6.851586 -8.388609 -8.193901 -8.501293 5.434753 -11.887520 7.996869 7.921200 -4.700800 2.195000 0.491600 0.966821 1.409394 -83.028753 0.989999 65.090375 115.235290 -56.079778 -79.248651 -1.673295 0.092973 -17.184018 33.990971 25.706708 16.524500 -7.125000 0.000000 0.000000 7.177000 59.110300 2.482400 -4.860330 -1.682446 1.034651 85.643503 -15.805524 45.572352 -98.780996 60.554452 -67.706563 0.903707 -0.846308 -53.044124 -25.525775 29.356292 -13.651000 7.125000 0.000000 0.000000 3.371800 3.344900 3.568800 
-40.132512 17.039490 -0.925069 48.890927 83.867318 55.641938 -0.722025 0.242486 0.870826 -18.545543 2.429582 -3.735478 -0.271216 8.929266 25.552750 0.809709 2.478679 -16.051275 0.039100 -1.275900 -3.508400 -1.534477 -0.360267 -1.034491 6.862008 -1.224036 -17.544138 -5.866163 -16.027001 47.924102 -1.139475 -1.377319 -14.837774 -0.845900 5.866300 -16.396900 -8.493197 0.915050 -1.138717 -0.154009 1.760478 -2.790141 1.490666 0.412963 7.113987 -8.378887 -8.162709 -9.125882 5.376114 -11.805575 8.060996 7.847300 -4.653600 2.446000 0.498615 0.968477 1.378990 -83.414860 -0.349542 65.255560 114.925476 -56.118907 -78.959150 -1.691243 -0.016860 -19.283749 32.550697 25.694894 15.759300 -7.125000 0.000000 0.000000 5.462200 58.826700 1.849600 -4.885262 -1.717466 0.992772 86.037485 -15.624113 44.671837 -98.127307 60.626365 -67.269545 0.961122 -0.812584 -53.624870 -26.047723 29.092753 -13.893800 7.125000 0.000000 0.000000 3.006300 3.226900 3.175000 
-40.059350 17.036784 -0.913571 47.667206 83.569730 54.631153 -0.710859 0.194902 0.859439 -18.872966 2.184343 -3.597164 -0.320588 8.885088 25.468969 0.349024 3.994955 -16.480307 0.127700 -2.303500 -6.345100 -1.640573 -0.350721 -1.110827 6.617787 -1.205110 -18.058813 -6.204249 -16.305131 48.989960 -0.926053 -1.812560 -14.201630 -1.326900 7.294800 -20.591700 -8.315482 1.363009 -0.828160 -0.221314 2.336310 -2.758905 1.472299 0.723260 7.102815 -9.018610 -8.614737 -9.143883 5.373466 -12.433074 7.895293 8.107100 -4.910700 2.603400 0.454496 0.935261 1.401736 -84.079480 -1.894739 66.572923 114.040460 -56.280942 -77.967986 -1.698205 -0.144784 -21.790462 30.272713 25.323021 14.378500 -7.125000 0.000000 0.000000 2.867800 57.982600 0.911600 -5.026168 -1.682459 1.026325 86.596577 -15.855852 42.402674 -98.058605 60.645196 -67.499117 1.043385 -0.771848 -54.386085 -26.946232 28.895462 -14.402500 7.125000 0.000000 0.000000 2.430100 3.295500 2.568000 
-39.996559 16.997892 -0.901396 46.580234 83.260438 53.619765 -0.715387 0.214818 0.951793 -19.342803 0.631389 -2.588268 -0.447627 8.752338 25.169408 -0.510663 6.717093 -16.984350 0.031300 1.142700 3.141600 -1.756591 -0.368738 -1.123722 6.331417 -1.096857 -18.632443 -6.648428 -16.634420 50.306274 -1.175559 -0.886810 -13.808642 -1.348700 7.352100 -20.762800 -8.641539 1.187112 -0.538575 -0.212604 2.018232 -2.890697 1.376737 0.609884 5.569953 -8.964638 -8.078973 -6.783061 5.445839 -11.714947 7.877994 8.292900 -4.676000 1.741300 0.531495 0.715005 1.475239 -84.258651 -0.959831 66.735469 112.985175 -56.469122 -76.983554 -1.711478 -0.151860 -21.826428 30.341267 25.475889 14.500600 -7.125000 0.000000 0.000000 2.930500 58.163600 0.944300 -5.115929 -1.353629 1.126838 86.907667 -18.021864 42.155800 -98.940372 60.548935 -68.174646 1.081758 -0.745003 -55.280031 -27.387103 28.549451 -14.542200 7.125000 0.000000 0.000000 2.107500 3.064300 2.218700 
-39.915167 16.985717 -0.886741 45.710438 82.916407 52.932306 -0.705607 0.186105 0.980998 -19.446528 1.895238 -3.075070 -0.404285 8.744778 25.189640 -0.350975 6.223145 -16.927569 0.069600 -1.701500 -4.681400 -1.883078 -0.367658 -1.200175 6.075263 -1.174106 -19.173036 -7.055042 -16.922556 51.471423 -1.506597 0.271052 -13.591258 -1.247000 7.080200 -19.953100 -8.954544 1.035588 -0.291934 -0.198373 1.805278 -2.906254 1.510068 0.493284 5.325470 -9.031254 -7.875241 -6.466534 5.513094 -11.419805 7.785376 8.366400 -4.525800 1.529800 0.577209 0.670615 1.489046 -84.787564 -1.903453 66.958434 111.519082 -56.732785 -75.626591 -1.749693 -0.170954 -22.072194 30.183190 25.889349 14.645600 -7.125000 0.000000 0.000000 2.698800 58.571300 0.896000 -5.136886 -1.291893 1.144385 86.924182 -18.392448 41.680213 -99.060804 60.559177 -68.348938 1.085341 -0.705287 -55.801217 -27.018639 28.093165 -14.132900 7.125000 0.000000 0.000000 2.222700 2.464900 2.318000 
